<?xml version="1.0" encoding="UTF-8"?>
<svg width="512" height="512" viewBox="0 0 512 512" xmlns="http://www.w3.org/2000/svg">
  <defs>
    <linearGradient id="grad" x1="0%" y1="0%" x2="100%" y2="100%">
      <stop offset="0%" style="stop-color:#9333EA;stop-opacity:1" />
      <stop offset="100%" style="stop-color:#EC4899;stop-opacity:1" />
    </linearGradient>
  </defs>
  <rect width="512" height="512" rx="128" fill="#1F2937"/>
  <!-- Graduation Cap -->
  <g transform="translate(76, 156)" fill="url(#grad)">
    <!-- Mortarboard Base -->
    <path d="M360 120L180 40 0 120l180 80 180-80zM180 320V184l-156-69.28V280c0 40 100 80 156 80s156-40 156-80V114.72L180 184v136z"/>
    <!-- Tassel -->
    <path d="M180 226c-13.25 0-24-10.75-24-24 0-13.26 10.75-24 24-24s24 10.74 24 24c0 13.25-10.75 24-24 24z"/>
  </g>
</svg>
